<svg xmlns="http://www.w3.org/2000/svg" width="198" height="156" fill="none"><path fill="#EF9E81" d="M151.954 89.948a292.012 292.012 0 0 0 6.912-31.39c1.76-4.008 3.744-7.92 5.92-11.703 2.688-4.65 5.855-8.946 8.799-13.435 2.624-4.008 4.992-8.432 5.28-13.274.224-3.783-.608-7.856-3.136-10.805-2.784-3.27-7.071-4.553-11.263-4.169-4.544.385-8.672 2.79-12.192 5.58-3.808 3.045-7.36 6.508-10.719 10.003-6.496 6.766-12.256 14.236-17.216 22.188-3.648-1.41-7.168-3.11-10.687-4.777-5.12-2.437-10.304-4.585-15.808-6.028-9.823-2.565-20.895-3.56-30.527.224-8.703 3.43-16.031 11.254-16.16 21.002-.063 3.847 1.057 7.214 2.913 10.164-3.968 2.18-7.328 5.29-9.408 9.394-2.112 4.168-2.528 9.266-.8 13.627a15.652 15.652 0 0 0 2.624 4.328c-3.232 2.95-6.144 6.702-7.488 10.902-1.28 3.976-.544 7.984 1.568 11.543a22.01 22.01 0 0 0 2.08 2.821c-3.552 3.11-4.704 8.209-3.648 12.761 1.216 5.355 5.12 9.523 9.312 12.826 3.232 2.533 6.688 4.809 10.272 6.829a72.72 72.72 0 0 0 5.568 3.142c2.015.994 4.127 1.924 6.271 2.565 1.472.449 2.976.834 4.48 1.027 1.024.128 2.048.192 3.072.16.512 0 1.024-.032 1.504-.096 1.408-.129 2.816-.513 4.192-.962.96-.321 1.888-.738 2.784-1.251a21.605 21.605 0 0 0 2.047-1.25c4.032.962 8.128 1.507 12.288 1.443 8.864-.161 17.183-3.752 23.903-9.491 7.392-6.284 12.608-14.653 16.576-23.438 4.447-9.747 7.775-20.104 10.687-30.46Z"/><path fill="#C4674E" d="M43.151 117.176a198.16 198.16 0 0 0 18.987 10.821c3.207 1.606 6.478 3.147 9.814 4.496 3.303 1.349 6.703 2.505 10.23 3.211 3.272.642 6.832.964 10.135.321 2.053-.385 4.266-.899 6.03-2.055 1.058-.674 1.956-1.541 2.79-2.472.738-.835 1.507-1.735 2.052-2.698.866-1.573 1.347-3.339 1.54-5.106.545-4.463-.898-9.087-4.49-11.913a11.626 11.626 0 0 0-1.668-1.124c-.449-.257-.834.417-.417.706 2.085 1.221 3.753 2.955 4.779 5.17.866 1.863 1.187 3.982 1.09 6.037-.096 1.767-.449 3.533-1.186 5.138a9.52 9.52 0 0 1-1.219 1.959c-.866 1.124-1.828 2.184-2.919 3.083-1.539 1.252-3.431 1.798-5.323 2.248-3.144.77-6.447.674-9.622.192-6.863-1.059-13.31-4.014-19.5-7.032a192.578 192.578 0 0 1-18.505-10.276c-.737-.449-1.443-.931-2.18-1.381-.45-.289-.867.418-.418.675Z"/><path fill="#C4674E" d="M49.117 92.064a808.74 808.74 0 0 0 21.584 9.794c6.927 3.051 13.919 6.102 21.231 8.125 3.528.995 7.313 1.926 11.001 1.284 2.726-.481 5.228-1.862 7.152-3.821 1.956-1.991 3.367-4.56 3.945-7.322.352-1.605.224-3.275-.064-4.88-.866-4.657-3.689-8.863-7.794-11.207-.609-.354-1.251-.643-1.924-.932-.481-.192-.674.578-.225.77 4.458 1.863 7.665 5.717 8.884 10.34.417 1.606.642 3.308.449 4.946-.256 2.376-1.443 4.785-2.918 6.647-1.7 2.087-3.977 3.661-6.575 4.4-3.432.931-7.024.224-10.391-.675-7.088-1.83-13.855-4.688-20.558-7.61a1009.778 1009.778 0 0 1-20.847-9.377c-.865-.417-1.731-.803-2.597-1.22-.417-.16-.802.546-.353.738Z"/><path fill="#C4674E" d="M56.654 64.866c8.114 3.371 15.971 7.321 23.957 10.886 3.945 1.766 7.954 3.436 12.027 4.913 4.137 1.509 8.435 2.986 12.829 3.468 3.816.45 7.889-.064 11.128-2.312 1.476-1.028 2.726-2.377 3.528-3.982.834-1.638 1.219-3.5 1.187-5.33 0-3.79-1.7-7.29-4.201-10.084-2.727-3.05-6.319-5.17-10.039-6.807-3.175-1.413-6.446-2.57-9.685-3.822a159.952 159.952 0 0 1-9.365-3.917c-.995-.45-1.989-.9-2.983-1.381-.45-.225-.866.482-.417.706a234.32 234.32 0 0 0 10.103 4.4 930.266 930.266 0 0 0 8.563 3.307c3.816 1.477 7.633 3.18 10.84 5.78 2.822 2.312 5.228 5.395 6.061 8.992.834 3.532.097 7.514-2.501 10.147s-6.415 3.66-10.039 3.596c-4.361-.064-8.659-1.477-12.732-2.858-4.073-1.38-8.05-2.986-11.963-4.688-7.825-3.404-15.458-7.257-23.316-10.629-.93-.417-1.892-.803-2.822-1.188-.417-.193-.642.61-.16.803ZM89.174 150.315a14.396 14.396 0 0 0 1.347-7.932 15.05 15.05 0 0 0-.994-3.885c-.449-1.092-1.026-2.537-2.245-2.922-.481-.161-.706.61-.224.77.545.161.865.707 1.122 1.188.289.546.545 1.092.77 1.67.417 1.156.705 2.344.801 3.565a13.67 13.67 0 0 1-1.282 7.128c-.225.482.48.9.705.418Z"/><path fill="#C4674E" d="M102.259 77.967c.161-4.945 2.309-9.73 5.869-13.133.385-.354-.192-.932-.577-.579-3.72 3.565-5.933 8.542-6.126 13.68.033.546.834.546.834.032Z"/><path fill="#C4674E" d="M106.878 65.925c1.796.514 3.592 1.124 5.227 2.056 1.315.738 2.534 1.83 2.791 3.403.256 1.542-.449 3.115-1.572 4.143-1.187 1.124-2.854 1.638-4.458 1.766-2.213.16-4.394-.45-6.51-1.06-.481-.128-.706.642-.225.77 3.72 1.093 8.178 2.024 11.482-.673 1.283-1.06 2.149-2.698 2.116-4.4 0-1.766-1.026-3.179-2.405-4.142-.834-.578-1.764-1.028-2.694-1.413a33.295 33.295 0 0 0-3.56-1.252c-.481-.129-.673.642-.192.802ZM92.478 103.464c.16-5.299 2.47-10.404 6.286-14.065.384-.353-.193-.931-.578-.578-3.977 3.79-6.35 9.12-6.542 14.643 0 .514.801.514.834 0Z"/><path fill="#C4674E" d="M97.449 90.555c1.892.546 3.816 1.22 5.548 2.183 1.443.803 2.79 1.991 3.047 3.725.224 1.638-.513 3.308-1.7 4.4-1.315 1.22-3.111 1.766-4.843 1.894-2.373.161-4.682-.481-6.927-1.124-.481-.128-.706.643-.225.771 3.913 1.156 8.66 2.152 12.155-.642 1.412-1.124 2.342-2.89 2.342-4.72 0-1.895-1.123-3.404-2.598-4.464-.898-.642-1.892-1.092-2.887-1.51a32.002 32.002 0 0 0-3.72-1.316c-.481-.128-.706.642-.192.803ZM83.818 129.314c.16-5.299 2.47-10.404 6.286-14.065.385-.353-.192-.931-.577-.578-3.977 3.789-6.35 9.12-6.543 14.643 0 .514.802.514.834 0Z"/><path fill="#C4674E" d="M88.79 116.373c1.892.546 3.816 1.22 5.548 2.183 1.443.803 2.79 1.991 3.047 3.725.224 1.638-.514 3.308-1.7 4.4-1.315 1.22-3.111 1.766-4.843 1.894-2.373.161-4.683-.481-6.927-1.124-.482-.128-.706.643-.225.771 3.913 1.156 8.66 2.152 12.155-.642 1.411-1.124 2.341-2.89 2.341-4.721 0-1.894-1.122-3.403-2.597-4.463-.898-.642-1.893-1.092-2.887-1.509a31.982 31.982 0 0 0-3.72-1.317c-.481-.128-.706.674-.193.803ZM73.523 148.806c.129-3.982 1.86-7.836 4.747-10.597.385-.353-.193-.931-.578-.578-3.046 2.89-4.842 6.968-4.97 11.143 0 .546.801.546.801.032Z"/><path fill="#C4674E" d="M77.18 139.108c1.41.417 2.854.899 4.137 1.638 1.058.61 2.084 1.477 2.277 2.761.192 1.22-.385 2.505-1.283 3.308-.994.899-2.341 1.284-3.624 1.381-1.764.096-3.464-.354-5.164-.867-.48-.129-.705.642-.224.77 3.014.867 6.639 1.638 9.3-.514 1.091-.867 1.796-2.215 1.796-3.628 0-1.445-.833-2.633-1.988-3.468-1.475-1.06-3.335-1.67-5.067-2.152-.45-.16-.642.61-.16.771Z"/><path fill="#FFD62A" d="m174.773 114.51-2.662-9.152-2.469 9.152-8.852 2.922 8.852 2.987 2.469 9.922 2.79-9.858 8.531-3.051-8.659-2.922ZM27.468 44.09l-2.597-8.96-2.438 8.927-8.66 2.89 8.66 2.89 2.438 9.73 2.726-9.665 8.37-2.955-8.499-2.858ZM192.028 90.972l-1.604-5.523-1.507 5.523-5.324 1.734 5.324 1.799 1.507 6.004 1.668-5.94 5.163-1.863-5.227-1.734ZM8.674 73.793l-1.571-5.395-1.475 5.395L.4 75.527l5.228 1.734 1.475 5.876 1.636-5.844 5.035-1.766-5.1-1.734ZM109.957 4.464 108.674 0l-1.219 4.464-4.298 1.412 4.298 1.445 1.219 4.85 1.347-4.817 4.169-1.478-4.233-1.412ZM26.154 142.255l-1.283-4.464-1.22 4.464-4.297 1.445 4.298 1.445 1.219 4.817 1.347-4.785 4.169-1.477-4.233-1.445Z"/></svg>